# xmcd CD database file
#
# Track frame offsets:
#	150
#	34985
#	63819
#	77850
#	104553
#	130245
#	162132
#	182739
#	201396
#	225816
#	249578
#	279941
#	303558
#	341708
#
# Disc length: 4798 seconds
#
# Revision: 0
# Processed by: cddbd v1.5.2PL0 Copyright (c) Steve Scherf et al.
# Submitted via: CDex 1.70beta2
#
DISCID=c012bc0e
DTITLE=Allan Holdsworth - Then Sixteen men of tain/sand
DYEAR=1987
DGENRE=Jazz
TTITLE0=0274
TTITLE1=The sixteen men of tain
TTITLE2=Above and below
TTITLE3=The drums where yellow
TTITLE4=Texas
TTITLE5=Downside up
TTITLE6=Eidolon
TTITLE7=Above and below (reprise)
TTITLE8=Sand
TTITLE9=Distance vs. desire
TTITLE10=Pub wud
TTITLE11=Clown
TTITLE12=The 4.15 Bradford executive
TTITLE13=Mac Man
EXTD=YEAR: 1987
EXTT0=
EXTT1=
EXTT2=
EXTT3=
EXTT4=
EXTT5=
EXTT6=
EXTT7=
EXTT8=
EXTT9=
EXTT10=
EXTT11=
EXTT12=
EXTT13=
PLAYORDER=
